<svg width="160" height="160" viewBox="0 0 160 160" fill="none" xmlns="http://www.w3.org/2000/svg">
<path d="M60.0003 60L90.0003 80L120 60M20.0003 90H33.3337M6.66699 70H33.3337" stroke="white" stroke-width="6" stroke-linecap="round" stroke-linejoin="round"/>
<path d="M33.334 50.0002V46.6668C33.334 43.1306 34.7387 39.7392 37.2392 37.2387C39.7397 34.7383 43.1311 33.3335 46.6673 33.3335H133.334C136.87 33.3335 140.262 34.7383 142.762 37.2387C145.263 39.7392 146.667 43.1306 146.667 46.6668V113.333C146.667 116.87 145.263 120.261 142.762 122.762C140.262 125.262 136.87 126.667 133.334 126.667H46.6673C43.1311 126.667 39.7397 125.262 37.2392 122.762C34.7387 120.261 33.334 116.87 33.334 113.333V110" stroke="white" stroke-width="6" stroke-linecap="round"/>
</svg>
